<svg focusable="false" viewBox="0 0 140 140" xmlns="http://www.w3.org/2000/svg"><g transform="translate(29.000000, 19.000000)" fill="#FFFFFF">
							<path d="M40.8722296,0.5 C42.7243099,0.5 43.6732665,0.683251962 44.6610897,1.21154561 C45.5743443,1.69995949 46.3000405,2.42565574 46.7884544,3.3389103 C47.2856719,4.26862629 47.477247,5.16391365 47.4980648,6.81011595 L47.5,7.1277704 L47.5,17.875 L44.5,17.875 L44.5,7.1277704 L44.4954923,6.64429363 L44.4813578,6.235981 C44.4428503,5.48724792 44.3410775,5.12405196 44.1430148,4.75370688 C43.9342003,4.36325774 43.6367423,4.06579969 43.2462931,3.8569852 C42.875948,3.65892249 42.5127521,3.55714967 41.764019,3.51864218 L41.3557064,3.50450765 L40.8722296,3.5 L7.1277704,3.5 C6.95287213,3.5 6.7923192,3.50145159 6.64429363,3.50450765 L6.235981,3.51864218 C5.48724792,3.55714967 5.12405196,3.65892249 4.75370688,3.8569852 C4.36325774,4.06579969 4.06579969,4.36325774 3.8569852,4.75370688 C3.65892249,5.12405196 3.55714967,5.48724792 3.51864218,6.235981 L3.50450765,6.64429363 L3.5,7.1277704 L3.5,82.8722296 C3.5,83.0471279 3.50145159,83.2076808 3.50450765,83.3557064 L3.51864218,83.764019 C3.55714967,84.5127521 3.65892249,84.875948 3.8569852,85.2462931 C4.06579969,85.6367423 4.36325774,85.9342003 4.75370688,86.1430148 C5.12405196,86.3410775 5.48724792,86.4428503 6.235981,86.4813578 L6.64429363,86.4954923 L7.1277704,86.5 L38.1254883,86.5 L38.1254883,89.5 L7.1277704,89.5 C5.27569009,89.5 4.32673354,89.316748 3.3389103,88.7884544 C2.42565574,88.3000405 1.69995949,87.5743443 1.21154561,86.6610897 C0.714328059,85.7313737 0.52275297,84.8360863 0.5019352,83.189884 L0.5,82.8722296 L0.5,7.1277704 C0.5,5.27569009 0.683251962,4.32673354 1.21154561,3.3389103 C1.69995949,2.42565574 2.42565574,1.69995949 3.3389103,1.21154561 C4.26862629,0.714328059 5.16391365,0.52275297 6.81011595,0.5019352 L7.1277704,0.5 L40.8722296,0.5 Z" fill-rule="nonzero"/>
							<circle cx="24" cy="11" r="3"/>
							<path d="M74.6212182,16.0013345 L75.2005011,16.0119714 L75.7222154,16.033145 C76.9589245,16.0991626 77.7052509,16.2629816 78.3311198,16.5172509 L78.5759198,16.6237653 L78.8131322,16.7398231 C78.8523276,16.7599555 78.891426,16.7804813 78.9305371,16.8013981 C79.9083149,17.3243194 80.6756806,18.0916851 81.1986019,19.0694629 L81.2601769,19.1868678 L81.3762347,19.4240802 L81.4827491,19.6688802 C81.7200671,20.2530245 81.8785928,20.9421007 81.9523497,22.0368716 L81.9787524,22.5317745 C81.982282,22.6186903 81.9853748,22.7078953 81.9880286,22.7994989 L81.9986655,23.3787818 C82,23.4804186 82,23.5846734 82,23.6916556 L82,94.3083444 L81.9946707,94.9183846 C81.9928971,95.0148952 81.9906824,95.1088975 81.9880286,95.2005011 L81.966855,95.7222154 C81.9008374,96.9589245 81.7370184,97.7052509 81.4827491,98.3311198 L81.3762347,98.5759198 L81.2601769,98.8131322 C81.2400445,98.8523276 81.2195187,98.891426 81.1986019,98.9305371 C80.6756806,99.9083149 79.9083149,100.675681 78.9305371,101.198602 L78.8131322,101.260177 L78.5759198,101.376235 L78.3311198,101.482749 C77.7469755,101.720067 77.0578993,101.878593 75.9631284,101.95235 L75.4682255,101.978752 C75.3813097,101.982282 75.2921047,101.985375 75.2005011,101.988029 L74.6212182,101.998665 C74.5195814,102 74.4153266,102 74.3083444,102 L43.6916556,102 L43.0816154,101.994671 C42.9851048,101.992897 42.8911025,101.990682 42.7994989,101.988029 L42.2777846,101.966855 C41.0410755,101.900837 40.2947491,101.737018 39.6688802,101.482749 L39.4240802,101.376235 L39.1868678,101.260177 C39.1476724,101.240044 39.108574,101.219519 39.0694629,101.198602 C38.0916851,100.675681 37.3243194,99.9083149 36.8013981,98.9305371 L36.7398231,98.8131322 L36.6237653,98.5759198 L36.5172509,98.3311198 C36.2799329,97.7469755 36.1214072,97.0578993 36.0476503,95.9631284 L36.0212476,95.4682255 C36.017718,95.3813097 36.0146252,95.2921047 36.0119714,95.2005011 L36.0013345,94.6212182 L36.0013345,23.3787818 L36.0119714,22.7994989 L36.033145,22.2777846 C36.0991626,21.0410755 36.2629816,20.2947491 36.5172509,19.6688802 L36.6237653,19.4240802 L36.7398231,19.1868678 C36.7599555,19.1476724 36.7804813,19.108574 36.8013981,19.0694629 C37.3243194,18.0916851 38.0916851,17.3243194 39.0694629,16.8013981 L39.1868678,16.7398231 L39.4240802,16.6237653 L39.6688802,16.5172509 C40.2530245,16.2799329 40.9421007,16.1214072 42.0368716,16.0476503 L42.5317745,16.0212476 C42.6186903,16.017718 42.7078953,16.0146252 42.7994989,16.0119714 L43.3787818,16.0013345 L74.6212182,16.0013345 Z M74.5706736,19.0007328 L43.4293264,19.0007328 L42.9062753,19.0077601 L42.454555,19.0227138 C42.1054867,19.0386413 41.8218869,19.0634376 41.5816692,19.0986331 L41.312818,19.1459572 C40.9783448,19.2159726 40.7323138,19.3141768 40.4842595,19.4468377 C40.0292871,19.6901596 39.6901596,20.0292871 39.4468377,20.4842595 L39.3620339,20.6533184 C39.3487572,20.6817921 39.3359031,20.7105016 39.3234625,20.7395779 L39.2537086,20.9194828 C39.2212402,21.0126824 39.1923303,21.1115379 39.1667341,21.2195826 L39.1198872,21.4489712 C39.105696,21.5302161 39.092905,21.616592 39.0814417,21.7091457 L39.0509621,22.0063875 L39.0280134,22.346978 L39.0121603,22.7371986 L39.0029675,23.1833306 L39,23.6916556 L39.0007328,94.5706736 L39.0077601,95.0937247 L39.0227138,95.545445 C39.0386413,95.8945133 39.0634376,96.1781131 39.0986331,96.4183308 L39.1459572,96.687182 C39.2159726,97.0216552 39.3141768,97.2676862 39.4468377,97.5157405 C39.6901596,97.9707129 40.0292871,98.3098404 40.4842595,98.5531623 L40.6533184,98.6379661 C40.6817921,98.6512428 40.7105016,98.6640969 40.7395779,98.6765375 L40.9194828,98.7462914 C41.0126824,98.7787598 41.1115379,98.8076697 41.2195826,98.8332659 L41.4489712,98.8801128 C41.5302161,98.894304 41.616592,98.907095 41.7091457,98.9185583 L42.0063875,98.9490379 L42.346978,98.9719866 L42.7371986,98.9878397 L43.1833306,98.9970325 L43.6916556,99 L74.5706736,99 L75.0471169,98.9932415 L75.4645081,98.9807729 L75.8291284,98.9614264 C75.8858499,98.9576046 75.9406343,98.9534781 75.9936125,98.9490379 L76.2908543,98.9185583 C76.383408,98.907095 76.4697839,98.894304 76.5510288,98.8801128 L76.7804174,98.8332659 C76.8884621,98.8076697 76.9873176,98.7787598 77.0805172,98.7462914 L77.2604221,98.6765375 L77.431526,98.5968591 C77.4596589,98.5827282 77.4876868,98.5681656 77.5157405,98.5531623 C77.9707129,98.3098404 78.3098404,97.9707129 78.5531623,97.5157405 L78.6379661,97.3466816 C78.6512428,97.3182079 78.6640969,97.2894984 78.6765375,97.2604221 L78.7462914,97.0805172 C78.7787598,96.9873176 78.8076697,96.8884621 78.8332659,96.7804174 L78.8801128,96.5510288 C78.894304,96.4697839 78.907095,96.383408 78.9185583,96.2908543 L78.9490379,95.9936125 L78.9719866,95.653022 L78.9878397,95.2628014 L78.9970325,94.8166694 L79,94.3083444 L78.9992672,23.4293264 L78.9932415,22.9528831 L78.9807729,22.5354919 L78.9614264,22.1708716 C78.9576046,22.1141501 78.9534781,22.0593657 78.9490379,22.0063875 L78.9185583,21.7091457 C78.907095,21.616592 78.894304,21.5302161 78.8801128,21.4489712 L78.8332659,21.2195826 C78.8076697,21.1115379 78.7787598,21.0126824 78.7462914,20.9194828 L78.6765375,20.7395779 L78.5968591,20.568474 C78.5827282,20.5403411 78.5681656,20.5123132 78.5531623,20.4842595 C78.3098404,20.0292871 77.9707129,19.6901596 77.5157405,19.4468377 L77.3466816,19.3620339 C77.3182079,19.3487572 77.2894984,19.3359031 77.2604221,19.3234625 L77.0805172,19.2537086 C76.9873176,19.2212402 76.8884621,19.1923303 76.7804174,19.1667341 L76.5510288,19.1198872 C76.4697839,19.105696 76.383408,19.092905 76.2908543,19.0814417 L75.9936125,19.0509621 L75.653022,19.0280134 L75.2628014,19.0121603 L74.8166694,19.0029675 L74.5706736,19.0007328 Z" fill-rule="nonzero"/>
							<circle cx="59" cy="27" r="3"/>
						</g></svg>