<svg focusable="false" viewBox="0 0 140 140" xmlns="http://www.w3.org/2000/svg"><g transform="translate(36.000000, 18.000000)" fill="#FFFFFF" fill-rule="nonzero"> <path d="M20.6165591,0.5 L47.3931113,0.5 C49.8783985,0.5 51.8931239,2.51471245 51.8931239,5 L51.89146,5.12236221 C51.6754413,13.0637531 52.461794,19.6830863 54.2339001,24.9756795 L54.4143959,25.5005161 L51.5856041,26.4994839 C49.6151821,20.9198105 48.7168923,14.0342339 48.8740647,5.83805742 L48.8931239,5 C48.8931239,4.22030091 48.2982348,3.57954804 47.5375783,3.50686603 L47.3931173,3.5 L20.5777406,3.50050238 C19.7495942,3.52194126 19.0956261,4.21066771 19.1170615,5.03881176 C19.3049828,12.2978851 18.4903183,19.1600007 16.670925,25.6204329 L16.4382677,26.4258944 L13.5617323,25.5741056 C15.4529261,19.1874458 16.3058448,12.3700074 16.1180661,5.11644287 C16.055597,2.70298375 17.9052061,0.684232504 20.2884657,0.51188558 L20.6165591,0.5 Z"/> <path d="M47.3931113,77.5005161 C49.8783985,77.5005161 51.8931239,79.5152286 51.8931239,82.0005161 L51.89146,82.1228783 C51.6754413,90.0642693 52.461794,96.6836024 54.2339001,101.976196 L54.4143959,102.501032 L51.5856041,103.5 C49.6151821,97.9203266 48.7168923,91.0347501 48.8740647,82.8385736 L48.8931239,82.0005161 C48.8931239,81.220817 48.2982348,80.5800642 47.5375783,80.5073822 L47.3931173,80.5005161 L20.5777406,80.5010185 C19.7495942,80.5224574 19.0956261,81.2111838 19.1170615,82.0393279 C19.3049828,89.2984013 18.4903183,96.1605168 16.670925,102.620949 L16.4382677,103.426411 L13.5617323,102.574622 C15.4529261,96.1879619 16.3058448,89.3705235 16.1180661,82.116959 C16.055597,79.7034999 17.9052061,77.6847486 20.2884657,77.5124017 L20.5432307,77.5011302 L47.3931113,77.5005161 Z" transform="translate(33.988064, 90.500258) scale(1, -1) translate(-33.988064, -90.500258) "/> <path d="M34,18 C52.7776815,18 68,33.2223185 68,52 C68,70.7776815 52.7776815,86 34,86 C15.2223185,86 0,70.7776815 0,52 C0,33.2223185 15.2223185,18 34,18 Z M34,21 C16.8791728,21 3,34.8791728 3,52 C3,69.1208272 16.8791728,83 34,83 C51.1208272,83 65,69.1208272 65,52 C65,34.8791728 51.1208272,21 34,21 Z"/> <path d="M34,27 C47.8071187,27 59,38.1928813 59,52 C59,65.8071187 47.8071187,77 34,77 C20.1928813,77 9,65.8071187 9,52 C9,38.1928813 20.1928813,27 34,27 Z M34,29 C21.2974508,29 11,39.2974508 11,52 C11,64.7025492 21.2974508,75 34,75 C46.7025492,75 57,64.7025492 57,52 C57,39.2974508 46.7025492,29 34,29 Z"/> </g></svg>