<svg focusable="false" viewBox="0 0 140 140" xmlns="http://www.w3.org/2000/svg"><g transform="translate(45.000000, 23.000000)" fill="#FFFFFF"> <path d="M42.6212182,0.00133451073 L43.2005011,0.0119713912 L43.7222154,0.0331449609 C44.9589245,0.0991626236 45.7052509,0.262981614 46.3311198,0.517250937 L46.5759198,0.623765259 L46.8131322,0.739823069 C46.8523276,0.75995552 46.891426,0.78048126 46.9305371,0.801398111 C47.9083149,1.32431939 48.6756806,2.09168511 49.1986019,3.06946289 L49.2601769,3.18686782 L49.3762347,3.42408019 L49.4827491,3.6688802 C49.7200671,4.2530245 49.8785928,4.94210069 49.9523497,6.03687164 L49.9787524,6.53177451 C49.982282,6.61869035 49.9853748,6.70789527 49.9880286,6.79949889 L49.9986655,7.37878179 C50,7.48041862 50,7.58467335 50,7.6916556 L50,86.3083444 L49.9946707,86.9183846 C49.9928971,87.0148952 49.9906824,87.1088975 49.9880286,87.2005011 L49.966855,87.7222154 C49.9008374,88.9589245 49.7370184,89.7052509 49.4827491,90.3311198 L49.3762347,90.5759198 L49.2601769,90.8131322 C49.2400445,90.8523276 49.2195187,90.891426 49.1986019,90.9305371 C48.6756806,91.9083149 47.9083149,92.6756806 46.9305371,93.1986019 L46.8131322,93.2601769 L46.5759198,93.3762347 L46.3311198,93.4827491 C45.7469755,93.7200671 45.0578993,93.8785928 43.9631284,93.9523497 L43.4682255,93.9787524 C43.3813097,93.982282 43.2921047,93.9853748 43.2005011,93.9880286 L42.6212182,93.9986655 C42.5195814,94 42.4153266,94 42.3083444,94 L7.6916556,94 L7.08161544,93.9946707 C6.98510482,93.9928971 6.89110251,93.9906824 6.79949889,93.9880286 L6.27778464,93.966855 C5.04107551,93.9008374 4.29474909,93.7370184 3.6688802,93.4827491 L3.42408019,93.3762347 L3.18686782,93.2601769 C3.14767244,93.2400445 3.108574,93.2195187 3.06946289,93.1986019 C2.09168511,92.6756806 1.32431939,91.9083149 0.801398111,90.9305371 L0.739823069,90.8131322 L0.623765259,90.5759198 L0.517250937,90.3311198 C0.279932902,89.7469755 0.121407157,89.0578993 0.0476503331,87.9631284 L0.0212476241,87.4682255 C0.0177179698,87.3813097 0.0146251662,87.2921047 0.0119713912,87.2005011 L0.00133451073,86.6212182 L0.00133451073,7.37878179 L0.0119713912,6.79949889 L0.0331449609,6.27778464 C0.0991626236,5.04107551 0.262981614,4.29474909 0.517250937,3.6688802 L0.623765259,3.42408019 L0.739823069,3.18686782 C0.75995552,3.14767244 0.78048126,3.108574 0.801398111,3.06946289 C1.32431939,2.09168511 2.09168511,1.32431939 3.06946289,0.801398111 L3.18686782,0.739823069 L3.42408019,0.623765259 L3.6688802,0.517250937 C4.2530245,0.279932902 4.94210069,0.121407157 6.03687164,0.0476503331 L6.53177451,0.0212476241 C6.61869035,0.0177179698 6.70789527,0.0146251662 6.79949889,0.0119713912 L7.37878179,0.00133451073 L42.6212182,0.00133451073 Z M42.3083444,3 L7.6916556,3 L7.18333064,3.00296753 L6.73719856,3.01216025 L6.34697798,3.02801338 L6.0063875,3.05096212 L5.70914571,3.08144167 C5.61659196,3.09290502 5.5302161,3.10569603 5.44897122,3.11988725 L5.21958264,3.16673405 C5.11153793,3.1923303 5.01268241,3.22124021 4.9194828,3.25370858 L4.73957787,3.32346249 L4.56847397,3.40314085 C4.54034111,3.4172718 4.51231323,3.43183439 4.48425947,3.44683771 C4.02928711,3.69015959 3.69015959,4.02928711 3.44683771,4.48425947 L3.36203391,4.65331838 C3.34875721,4.68179208 3.33590309,4.71050162 3.32346249,4.73957787 L3.25370858,4.9194828 C3.22124021,5.01268241 3.1923303,5.11153793 3.16673405,5.21958264 L3.11988725,5.44897122 C3.10569603,5.5302161 3.09290502,5.61659196 3.08144167,5.70914571 L3.05096212,6.0063875 L3.02801338,6.34697798 L3.01216025,6.73719856 L3.00296753,7.18333064 L3,7.6916556 L3.00073282,86.5706736 L3.00776007,87.0937247 L3.02271385,87.545445 C3.03864128,87.8945133 3.06343761,88.1781131 3.09863309,88.4183308 L3.14595719,88.687182 C3.21597261,89.0216552 3.31417682,89.2676862 3.44683771,89.5157405 C3.69015959,89.9707129 4.02928711,90.3098404 4.48425947,90.5531623 L4.65331838,90.6379661 C4.68179208,90.6512428 4.71050162,90.6640969 4.73957787,90.6765375 L4.9194828,90.7462914 C5.01268241,90.7787598 5.11153793,90.8076697 5.21958264,90.8332659 L5.44897122,90.8801128 C5.5302161,90.894304 5.61659196,90.907095 5.70914571,90.9185583 L6.0063875,90.9490379 L6.34697798,90.9719866 L6.73719856,90.9878397 L7.18333064,90.9970325 L7.6916556,91 L42.5706736,91 L43.0471169,90.9932415 L43.4645081,90.9807729 L43.8291284,90.9614264 C43.8858499,90.9576046 43.9406343,90.9534781 43.9936125,90.9490379 L44.2908543,90.9185583 C44.383408,90.907095 44.4697839,90.894304 44.5510288,90.8801128 L44.7804174,90.8332659 C44.8884621,90.8076697 44.9873176,90.7787598 45.0805172,90.7462914 L45.2604221,90.6765375 L45.431526,90.5968591 C45.4596589,90.5827282 45.4876868,90.5681656 45.5157405,90.5531623 C45.9707129,90.3098404 46.3098404,89.9707129 46.5531623,89.5157405 L46.6379661,89.3466816 C46.6512428,89.3182079 46.6640969,89.2894984 46.6765375,89.2604221 L46.7462914,89.0805172 C46.7787598,88.9873176 46.8076697,88.8884621 46.8332659,88.7804174 L46.8801128,88.5510288 C46.894304,88.4697839 46.907095,88.383408 46.9185583,88.2908543 L46.9490379,87.9936125 L46.9719866,87.653022 L46.9878397,87.2628014 L46.9970325,86.8166694 L47,86.3083444 L46.9992672,7.42932642 L46.9932415,6.95288308 L46.9807729,6.53549192 L46.9614264,6.17087156 C46.9576046,6.1141501 46.9534781,6.0593657 46.9490379,6.0063875 L46.9185583,5.70914571 C46.907095,5.61659196 46.894304,5.5302161 46.8801128,5.44897122 L46.8332659,5.21958264 C46.8076697,5.11153793 46.7787598,5.01268241 46.7462914,4.9194828 L46.6765375,4.73957787 L46.5968591,4.56847397 C46.5827282,4.54034111 46.5681656,4.51231323 46.5531623,4.48425947 C46.3098404,4.02928711 45.9707129,3.69015959 45.5157405,3.44683771 L45.3466816,3.36203391 C45.3182079,3.34875721 45.2894984,3.33590309 45.2604221,3.32346249 L45.0805172,3.25370858 C44.9873176,3.22124021 44.8884621,3.1923303 44.7804174,3.16673405 L44.5510288,3.11988725 C44.4697839,3.10569603 44.383408,3.09290502 44.2908543,3.08144167 L43.9936125,3.05096212 L43.653022,3.02801338 L43.2628014,3.01216025 L42.8166694,3.00296753 L42.3083444,3 Z" fill-rule="nonzero"/> <circle cx="25" cy="11" r="3"/> </g></svg>